<svg xmlns="http://www.w3.org/2000/svg" width="64" height="64" viewBox="0 0 64 64" fill="none"><rect width="64" height="64" rx="13" fill="#17140E"/><g transform="rotate(-12 32 36)"><path d="M8 25 C 18 19, 25 31, 33 25 C 41 19, 48 31, 56 25" stroke="#4A2016" stroke-opacity="0.22" stroke-width="11.8" stroke-linecap="round" fill="none"/><path d="M8 30.5 C 18 24.5, 25 36.5, 33 30.5 C 41 24.5, 48 36.5, 56 30.5" stroke="#4A2016" stroke-opacity="0.22" stroke-width="11.8" stroke-linecap="round" fill="none"/><path d="M8 36 C 18 30, 25 42, 33 36 C 41 30, 48 42, 56 36" stroke="#4A2016" stroke-opacity="0.22" stroke-width="11.8" stroke-linecap="round" fill="none"/><path d="M8 41.5 C 18 35.5, 25 47.5, 33 41.5 C 41 35.5, 48 47.5, 56 41.5" stroke="#4A2016" stroke-opacity="0.22" stroke-width="11.8" stroke-linecap="round" fill="none"/><path d="M8 47 C 18 41, 25 53, 33 47 C 41 41, 48 53, 56 47" stroke="#4A2016" stroke-opacity="0.22" stroke-width="11.8" stroke-linecap="round" fill="none"/><path d="M8 25 C 18 19, 25 31, 33 25 C 41 19, 48 31, 56 25" stroke="#F0D8B4" stroke-width="9.4" stroke-linecap="round" fill="none"/><path d="M8 30.5 C 18 24.5, 25 36.5, 33 30.5 C 41 24.5, 48 36.5, 56 30.5" stroke="#C0473A" stroke-width="9.4" stroke-linecap="round" fill="none"/><path d="M8 36 C 18 30, 25 42, 33 36 C 41 30, 48 42, 56 36" stroke="#D98771" stroke-width="9.4" stroke-linecap="round" fill="none"/><path d="M8 41.5 C 18 35.5, 25 47.5, 33 41.5 C 41 35.5, 48 47.5, 56 41.5" stroke="#C0473A" stroke-width="9.4" stroke-linecap="round" fill="none"/><path d="M8 47 C 18 41, 25 53, 33 47 C 41 41, 48 53, 56 47" stroke="#E9C99C" stroke-width="9.4" stroke-linecap="round" fill="none"/><path d="M8 24.2 C 18 18.2, 25 30.2, 33 24.2 C 41 18.2, 48 30.2, 56 24.2" stroke="#FFFFFF" stroke-opacity="0.26" stroke-width="2" stroke-linecap="round" fill="none"/></g><g transform="rotate(11 30 34)"><circle cx="25" cy="33" r="2.6" fill="#3A1E14"/><circle cx="35" cy="33" r="2.6" fill="#3A1E14"/><circle cx="24.1" cy="32.1" r="0.9" fill="#fff"/><circle cx="34.1" cy="32.1" r="0.9" fill="#fff"/><path d="M26 38 Q30 41.5 34 38" stroke="#3A1E14" stroke-width="1.7" fill="none" stroke-linecap="round"/></g></svg>
